<svg xmlns="http://www.w3.org/2000/svg" width="25" height="16" viewBox="0 0 25 16">
  <g id="Bengali" transform="translate(-579 -866)">
    <g id="Group_3452" data-name="Group 3452">
      <g id="Kannada" transform="translate(42)">
        <rect id="Rectangle_1512" data-name="Rectangle 1512" width="25" height="16" transform="translate(537 866)" fill="none"/>
      </g>
      <path id="Path_1107" data-name="Path 1107" d="M1.453.313H.828A11.366,11.366,0,0,0-.414-1.562,11.785,11.785,0,0,0-1.926-3.105,11.065,11.065,0,0,0-3.617-4.289a10.048,10.048,0,0,0-1.773-.8V-6.719a17.6,17.6,0,0,1,3.059-1.75,11.3,11.3,0,0,1,2.785-.82v-1.469H-6.82v-.891H2.961v.891H1.453Zm-1-2.344V-8.273a9.172,9.172,0,0,0-2.316.719A16.623,16.623,0,0,0-4.539-6.008v.156a14.94,14.94,0,0,1,1.434.7,10.58,10.58,0,0,1,1.285.84A10.5,10.5,0,0,1-.66-3.285,12.882,12.882,0,0,1,.406-2.031ZM4.313-9.57a1.11,1.11,0,0,0-.1-.465,1.094,1.094,0,0,0-.281-.375,1.36,1.36,0,0,0-.453-.254,1.835,1.835,0,0,0-.605-.094H2.617v-.891h.258a3.2,3.2,0,0,1,1.094.191,2.065,2.065,0,0,1,.859.559.953.953,0,0,1,.137-.562.421.421,0,0,1,.355-.187h1.5v.891H6.633a1.354,1.354,0,0,0-.969.332,1.124,1.124,0,0,0-.352.855V0h-1Z" transform="translate(591.82 879.648)"/>
    </g>
  </g>
</svg>
