<svg xmlns="http://www.w3.org/2000/svg" width="25" height="16" viewBox="0 0 25 16">
  <g id="Hindi" transform="translate(-411 -866)">
    <rect id="Rectangle_1474" data-name="Rectangle 1474" width="25" height="16" transform="translate(411 866)" fill="none"/>
    <path id="Path_1106" data-name="Path 1106" d="M-3.624-9.413H-5.059V0h-.875V-9.413H-7.568v-.779h1.6a5.247,5.247,0,0,1-.284-.9,3.918,3.918,0,0,1-.092-.82,2.583,2.583,0,0,1,.15-.9,1.814,1.814,0,0,1,.461-.7,2.145,2.145,0,0,1,.786-.458,3.429,3.429,0,0,1,1.118-.164,5.163,5.163,0,0,1,1.815.335A9.257,9.257,0,0,1-.247-12.9a14.5,14.5,0,0,1,1.7,1.282q.831.725,1.61,1.5H2.037l-.479-.455q-.314-.3-.742-.649t-.954-.721a9.237,9.237,0,0,0-1.118-.67A7.463,7.463,0,0,0-2.479-13.1,4.4,4.4,0,0,0-3.76-13.3a2.5,2.5,0,0,0-.837.12,1.317,1.317,0,0,0-.526.328,1.2,1.2,0,0,0-.277.485,2.047,2.047,0,0,0-.082.584,5.007,5.007,0,0,0,.328,1.586h1.531ZM1.141-1.818a4.44,4.44,0,0,0,.434-.157A1.684,1.684,0,0,0,2-2.232a1.369,1.369,0,0,0,.325-.393,1.148,1.148,0,0,0,.13-.567,1.264,1.264,0,0,0-.133-.591,1.154,1.154,0,0,0-.386-.427,1.849,1.849,0,0,0-.608-.256,3.4,3.4,0,0,0-.793-.085,4.142,4.142,0,0,0-.772.075A2.058,2.058,0,0,0-.958-4.2a1.606,1.606,0,0,0-.53.554,1.759,1.759,0,0,0-.208.906,2.45,2.45,0,0,0,.212,1.022,3.5,3.5,0,0,0,.547.854,4.7,4.7,0,0,0,.749.694,8.654,8.654,0,0,0,.813.54q.4.232.745.393l.55.256L1.585,1.7q-.472-.219-.96-.465T-.322.694A7.268,7.268,0,0,1-1.183.055a4.4,4.4,0,0,1-.7-.769,3.626,3.626,0,0,1-.475-.919,3.319,3.319,0,0,1-.174-1.1,2.91,2.91,0,0,1,.15-.981,2.262,2.262,0,0,1,.417-.728,3.14,3.14,0,0,1-.588-.875,2.275,2.275,0,0,1-.219-.937,1.439,1.439,0,0,1,.1-.526,1.1,1.1,0,0,1,.3-.431A1.488,1.488,0,0,1-1.839-7.5a2.6,2.6,0,0,1,.793-.106H2.166v-1.8H-4.1v-.779H4.6v.779H3.035V-6.8H-1a1.423,1.423,0,0,0-.437.058.79.79,0,0,0-.291.161.578.578,0,0,0-.161.239.863.863,0,0,0-.048.287,1.216,1.216,0,0,0,.041.308,1.9,1.9,0,0,0,.109.308,2.131,2.131,0,0,0,.161.291,1.857,1.857,0,0,0,.195.25,3.1,3.1,0,0,1,.9-.352A4.622,4.622,0,0,1,.5-5.366a4.343,4.343,0,0,1,1.121.137,2.583,2.583,0,0,1,.885.414,1.933,1.933,0,0,1,.581.69,2.123,2.123,0,0,1,.208.967,2.014,2.014,0,0,1-.191.926,1.957,1.957,0,0,1-.475.612,2.407,2.407,0,0,1-.6.376q-.318.137-.571.219Z" transform="translate(424.984 880.217)"/>
  </g>
</svg>
