<svg xmlns="http://www.w3.org/2000/svg" width="25" height="16" viewBox="0 0 25 16">
  <g id="Kannada" transform="translate(-537 -866)">
    <rect id="Rectangle_1512" data-name="Rectangle 1512" width="25" height="16" transform="translate(537 866)" fill="none"/>
    <path id="Path_1103" data-name="Path 1103" d="M1.076-8.4a2.266,2.266,0,0,1,.43.66,2.132,2.132,0,0,1,.178.878,1.736,1.736,0,0,1-.1.621,3.028,3.028,0,0,1-.3.578h4.64v.956H2.988A3.917,3.917,0,0,1,3.813-3.49a3.676,3.676,0,0,1,.3,1.482A3.548,3.548,0,0,1,3.831-.587,3.675,3.675,0,0,1,3.053.568,3.615,3.615,0,0,1,1.9,1.342a3.6,3.6,0,0,1-1.421.282A3.564,3.564,0,0,1-.94,1.342,3.628,3.628,0,0,1-2.092.568,3.615,3.615,0,0,1-2.865-.587a3.6,3.6,0,0,1-.282-1.421,3.743,3.743,0,0,1,.3-1.49,3.755,3.755,0,0,1,.821-1.212H-4.937v-.956H0A1.814,1.814,0,0,0,.32-6a1.86,1.86,0,0,0,.191-.326,1.325,1.325,0,0,0,.1-.3,1.489,1.489,0,0,0,.026-.265A1.937,1.937,0,0,0,.481-7.6a1.722,1.722,0,0,0-.5-.678V-8.4Zm-.6,3.65a2.352,2.352,0,0,0-1,.213,2.665,2.665,0,0,0-.808.574,2.608,2.608,0,0,0-.543.847,2.748,2.748,0,0,0-.2,1.034,2.748,2.748,0,0,0,.2,1.034A2.7,2.7,0,0,0-1.335-.2,2.562,2.562,0,0,0-.527.377a2.382,2.382,0,0,0,1,.213A2.411,2.411,0,0,0,1.484.377,2.548,2.548,0,0,0,2.3-.2a2.761,2.761,0,0,0,.543-.852,2.7,2.7,0,0,0,.2-1.034,2.7,2.7,0,0,0-.2-1.034,2.72,2.72,0,0,0-.547-.852,2.541,2.541,0,0,0-.817-.574A2.433,2.433,0,0,0,.476-4.754ZM4.613-12.68a3.328,3.328,0,0,1,.682.543,2.96,2.96,0,0,1,.443.6,2.4,2.4,0,0,1,.239.6,2.433,2.433,0,0,1,.07.556,2.108,2.108,0,0,1-.139.739,1.894,1.894,0,0,1-.435.673,2.254,2.254,0,0,1-.76.491,2.958,2.958,0,0,1-1.125.191H-.167v-.956H3.587a1.889,1.889,0,0,0,.647-.1,1.332,1.332,0,0,0,.456-.269A1.054,1.054,0,0,0,4.96-10a1.262,1.262,0,0,0,.087-.465,1.432,1.432,0,0,0-.269-.826,2.332,2.332,0,0,0-.73-.669Zm-4.3,4.4H-4.937v-.956H.311Z" transform="translate(549.445 879.68)"/>
  </g>
</svg>
