<svg xmlns="http://www.w3.org/2000/svg" width="25" height="16" viewBox="0 0 25 16">
  <g id="Malayalam" transform="translate(-453 -866)">
    <rect id="Rectangle_1475" data-name="Rectangle 1475" width="25" height="16" transform="translate(453 866)" fill="none"/>
    <path id="Path_1101" data-name="Path 1101" d="M-5.082,1.1V-5.738A7.629,7.629,0,0,1-4.71-8.251a4.522,4.522,0,0,1,1.087-1.768,4.445,4.445,0,0,1,1.755-1.045,7.589,7.589,0,0,1,2.376-.343,7.539,7.539,0,0,1,2.376.343,4.379,4.379,0,0,1,1.738,1.045,4.492,4.492,0,0,1,1.07,1.768,7.794,7.794,0,0,1,.364,2.513V1.1ZM4.962-5.789a7.171,7.171,0,0,0-.2-1.717A3.757,3.757,0,0,0,4.1-8.914,3.492,3.492,0,0,0,2.86-9.908a5.3,5.3,0,0,0-1.931-.48l-.009.043a2.569,2.569,0,0,1,.539.574,3.31,3.31,0,0,1,.364.7,4.107,4.107,0,0,1,.21.783,5.044,5.044,0,0,1,.069.831,6.026,6.026,0,0,1-.265,1.734A8.1,8.1,0,0,1,1.01-3.9,13.3,13.3,0,0,1-.428-1.966,22.161,22.161,0,0,1-2.539.1h7.5ZM-3.986.1q1.1-.95,2.017-1.892a14.709,14.709,0,0,0,1.584-1.9A9.007,9.007,0,0,0,.651-5.639a5.7,5.7,0,0,0,.372-2.025A2.943,2.943,0,0,0,.505-9.552,1.737,1.737,0,0,0-.921-10.19a2.969,2.969,0,0,0-.621.073,2.611,2.611,0,0,0-.676.253,2.976,2.976,0,0,0-.659.488,2.948,2.948,0,0,0-.565.779,4.755,4.755,0,0,0-.394,1.126,6.866,6.866,0,0,0-.15,1.52Z" transform="translate(465.512 878.859)"/>
  </g>
</svg>
