<svg xmlns="http://www.w3.org/2000/svg" width="25" height="16" viewBox="0 0 25 16">
  <g id="Tamil" transform="translate(-369 -866)">
    <rect id="Rectangle_1473" data-name="Rectangle 1473" width="25" height="16" transform="translate(369 866)" fill="none"/>
    <path id="Path_1099" data-name="Path 1099" d="M5.405-1.882A3.7,3.7,0,0,1,5.061-.245,3.215,3.215,0,0,1,4.08.938a4.476,4.476,0,0,1-1.545.718A7.89,7.89,0,0,1,.505,1.9H-3.823a1.5,1.5,0,0,0-.688.11.432.432,0,0,0-.19.41,1.46,1.46,0,0,0,.044.363,2.293,2.293,0,0,0,.125.355h-.857a3.175,3.175,0,0,1-.139-.406A1.632,1.632,0,0,1-5.588,2.3a1.119,1.119,0,0,1,.406-.927,2.167,2.167,0,0,1,1.344-.326h1.249q.392,0,.82,0t.839,0H.491q.278,0,.531-.007A3.882,3.882,0,0,0,1.509,1,3.812,3.812,0,0,0,3.691.088a2.572,2.572,0,0,0,.762-1.956,2.658,2.658,0,0,0-.168-1,1.745,1.745,0,0,0-.48-.685,1.95,1.95,0,0,0-.751-.392,3.627,3.627,0,0,0-.989-.125h-1v.9A4.777,4.777,0,0,1,.853-1.633,2.538,2.538,0,0,1,.2-.6,2.784,2.784,0,0,1-.828-.033,4.655,4.655,0,0,1-2.241.161,4.4,4.4,0,0,1-3.7-.055,2.865,2.865,0,0,1-4.709-.637a2.261,2.261,0,0,1-.582-.846A2.771,2.771,0,0,1-5.479-2.5a2.793,2.793,0,0,1,.132-.886,2.052,2.052,0,0,1,.381-.688,2.028,2.028,0,0,1,.6-.48,2.887,2.887,0,0,1,.784-.275v-3.94H4.468v.85H1.062v3.01h.974a5.486,5.486,0,0,1,1.333.154,2.792,2.792,0,0,1,1.069.513,2.418,2.418,0,0,1,.71.938A3.5,3.5,0,0,1,5.405-1.882ZM.132-4.065H-2.49A2.635,2.635,0,0,0-4.017-3.7a1.343,1.343,0,0,0-.509,1.176,1.809,1.809,0,0,0,.146.736,1.513,1.513,0,0,0,.439.571,2.118,2.118,0,0,0,.721.37,3.381,3.381,0,0,0,.992.132A3.562,3.562,0,0,0-1.172-.857a1.721,1.721,0,0,0,.736-.436,1.814,1.814,0,0,0,.428-.758A3.86,3.86,0,0,0,.132-3.157Zm0-3.853H-2.651v3.01H.132Z" transform="translate(382 876.767)"/>
  </g>
</svg>
