<svg xmlns="http://www.w3.org/2000/svg" width="25" height="16" viewBox="0 0 25 16">
  <g id="Telugu" transform="translate(-495 -866)">
    <rect id="Rectangle_1476" data-name="Rectangle 1476" width="25" height="16" transform="translate(495 866)" fill="none"/>
    <path id="Path_1104" data-name="Path 1104" d="M6.23-3.463q.017.1.025.2t.008.194a2.237,2.237,0,0,1-.136.776,2,2,0,0,1-.392.656,1.889,1.889,0,0,1-.623.454,1.94,1.94,0,0,1-.821.169,2.293,2.293,0,0,1-.751-.128,1.973,1.973,0,0,1-.66-.38,1.952,1.952,0,0,1-.471-.623A1.932,1.932,0,0,1,2.226-3a1.916,1.916,0,0,1,.194-.883,1.934,1.934,0,0,1,.512-.636,2.137,2.137,0,0,1,.722-.38,2.833,2.833,0,0,1,.834-.124q.091,0,.149,0t.116,0A3.355,3.355,0,0,0,4.315-5.5,2.74,2.74,0,0,0,3.7-5.915a3.719,3.719,0,0,0-.809-.293A4.344,4.344,0,0,0,1.863-6.32l-.074-.735a5.4,5.4,0,0,1,1.54.2,4.3,4.3,0,0,1,1.156.524,3.6,3.6,0,0,1,.826.743,4.622,4.622,0,0,1,.549.854,3.4,3.4,0,0,1,.888.59,3.75,3.75,0,0,1,.681.834,4.127,4.127,0,0,1,.433,1,3.992,3.992,0,0,1,.153,1.1A3.806,3.806,0,0,1,7.737.281a3.742,3.742,0,0,1-.747,1.148,4.427,4.427,0,0,1-1.106.834,7.14,7.14,0,0,1-1.358.557,9.176,9.176,0,0,1-1.49.31,12.24,12.24,0,0,1-1.5.095,11.957,11.957,0,0,1-1.523-.1,9.784,9.784,0,0,1-1.494-.31,6.954,6.954,0,0,1-1.358-.553,4.612,4.612,0,0,1-1.11-.826A3.581,3.581,0,0,1-4.7.31a3.719,3.719,0,0,1-.272-1.461,4.058,4.058,0,0,1,.3-1.585,3.912,3.912,0,0,1,.8-1.234,3.621,3.621,0,0,1,1.16-.8,3.378,3.378,0,0,1,1.358-.285A2.578,2.578,0,0,1-.42-4.9a2.032,2.032,0,0,1,.685.421,1.76,1.76,0,0,1,.421.623A2.005,2.005,0,0,1,.831-3.1a2.225,2.225,0,0,1-.136.764,2.015,2.015,0,0,1-.4.669,2.041,2.041,0,0,1-.644.475,2.006,2.006,0,0,1-.875.182,2.077,2.077,0,0,1-.834-.161,1.912,1.912,0,0,1-.632-.433,1.924,1.924,0,0,1-.4-.627,2,2,0,0,1-.14-.743,1.925,1.925,0,0,1,.083-.561,1.687,1.687,0,0,0-.334.326,2.488,2.488,0,0,0-.293.479,2.958,2.958,0,0,0-.211.623,3.363,3.363,0,0,0-.078.743A2.924,2.924,0,0,0-3.838-.186a3.045,3.045,0,0,0,.619.921,3.747,3.747,0,0,0,.929.685,6.116,6.116,0,0,0,1.16.466,8.516,8.516,0,0,0,1.3.268,10.553,10.553,0,0,0,1.35.087A11.175,11.175,0,0,0,2.87,2.159a8.067,8.067,0,0,0,1.3-.264,6.331,6.331,0,0,0,1.156-.462A3.855,3.855,0,0,0,6.255.76a2.934,2.934,0,0,0,.623-.9,2.8,2.8,0,0,0,.227-1.148,3.072,3.072,0,0,0-.239-1.267A2.791,2.791,0,0,0,6.23-3.463ZM-1.217-1.919a.981.981,0,0,0,.429-.095A1.086,1.086,0,0,0-.445-2.27a1.144,1.144,0,0,0,.223-.376,1.337,1.337,0,0,0,.078-.462A.971.971,0,0,0-.474-3.9a1.385,1.385,0,0,0-.916-.277,2.889,2.889,0,0,0-.367.029,1.557,1.557,0,0,0-.425.12,4.727,4.727,0,0,0-.149.454,1.6,1.6,0,0,0-.05.4,1.312,1.312,0,0,0,.107.549A1.247,1.247,0,0,0-2-2.225a1.045,1.045,0,0,0,.376.231A1.225,1.225,0,0,0-1.217-1.919Zm5.7-2.254a1.628,1.628,0,0,0-.59.095,1.1,1.1,0,0,0-.4.252,1,1,0,0,0-.227.363,1.234,1.234,0,0,0-.074.421,1.189,1.189,0,0,0,.083.446,1.076,1.076,0,0,0,.227.355,1.071,1.071,0,0,0,.343.235,1.059,1.059,0,0,0,.429.087A1.144,1.144,0,0,0,4.7-2a1.072,1.072,0,0,0,.363-.235,1.121,1.121,0,0,0,.256-.4,1.518,1.518,0,0,0,.095-.561,2.616,2.616,0,0,0-.165-.859A2.387,2.387,0,0,0,4.488-4.173Zm-.38-5.069H-5.056v-.85H4.108Zm.85,3H-.028V-7.1H4.959Zm2.13-1.924a.909.909,0,0,0-.4-.8,1.833,1.833,0,0,0-1.061-.277H1.747v-.85H5.578a3.541,3.541,0,0,1,.908.116,2.488,2.488,0,0,1,.78.351,1.749,1.749,0,0,1,.545.6,1.737,1.737,0,0,1,.2.859,1.717,1.717,0,0,1-.211.875,1.829,1.829,0,0,1-.553.6,2.355,2.355,0,0,1-.78.343,3.729,3.729,0,0,1-.892.107H3.423V-7.1h2.2a1.809,1.809,0,0,0,1.065-.281A.915.915,0,0,0,7.089-8.169Z" transform="translate(506.521 877.388)"/>
  </g>
</svg>
